{"title":"Fast and Furious 4 (2009) DVDRip-MAX","uid":5136385,"size":735829610,"categoryP":"video","categoryS":"movies","magnet":"?xt=urn:btih:6544a8182cea7642d3e71c2c9a3f910d13357e38&amp;dn=Fast+and+Furious+4+%282009%29+DVDRip-MAX&amp;tr=udp%3A%2F%2Ftracker.openbittorrent.com%3A80&amp;tr=udp%3A%2F%2Fopen.demonii.com%3A1337&amp;tr=udp%3A%2F%2Ftracker.coppersurfer.tk%3A6969&amp;tr=udp%3A%2F%2Fexodus.desync.com%3A6969","seeders":33,"leechers":1,"uploader":"extremezone","files":-1,"time":1256509014,"description":"Fast and Furious 4 (2009) DVDRip-MAX\n\nFormat                           : AVI\nFormat/Info                      : Audio Video Interleave\nFile size                        : 702 MiB\nDuration                         : 1h 45mn\nOverall bit rate                 : 927 Kbps\nWriting application              : Hyper HD Xvid\nWriting library                  : VirtualDub build 31953/release\nOriginal source form             : MAX TORRENTZ\nCopyright                        : SIGISMUNT\n\nVideo\nFormat                           : MPEG-4 Visual\nFormat profile                   : Streaming Video@L1\nFormat settings, BVOP            : Yes\nFormat settings, QPel            : No\nFormat settings, GMC             : No warppoints\nFormat settings, Matrix          : Default (H.263)\nMuxing mode                      : Packed bitstream\nCodec ID                         : XVID\nCodec ID/Hint                    : XviD\nDuration                         : 1h 45mn\nBit rate                         : 813 Kbps\nWidth                            : 672 pixels\nHeight                           : 288 pixels\nDisplay aspect ratio             : 2.35\nFrame rate                       : 23.976 fps\nResolution                       : 24 bits\nColorimetry                      : 4:2:0\nScan type                        : Progressive\nBits/(Pixel*Frame)               : 0.175\nStream size                      : 616 MiB (88%)\nWriting library                  : XviD 1.2.1 (UTC 2008-12-04)\n\nAudio\nFormat                           : MPEG Audio\nFormat version                   : Version 1\nFormat profile                   : Layer 3\nCodec ID                         : 55\nCodec ID/Hint                    : MP3\nDuration                         : 1h 45mn\nBit rate mode                    : Variable\nBit rate                         : 101 Kbps\nChannel(s)                       : 2 channels\nSampling rate                    : 44.1 KHz\nResolution                       : 16 bits\nStream size                      : 76.4 MiB (11%)\nAlignment                        : Aligned on interleaves\nInterleave, duration             : 26 ms (0.63 video frame)\nInterleave, preload duration     : 344 ms\n\nScreens: &lt;a href=&quot;\nhttp://www.postimg.com/image/8000/7454.jpg&quot; rel=&quot;nofollow&quot; target=&quot;_NEW&quot;&gt;\nhttp://www.postimg.com/image/8000/7454.jpg&lt;/a&gt; &lt;a href=&quot;\nhttp://www.postimg.com/image/8000/7455.jpg&quot; rel=&quot;nofollow&quot; target=&quot;_NEW&quot;&gt;\nhttp://www.postimg.com/image/8000/7455.jpg&lt;/a&gt; &lt;a href=&quot;\nhttp://www.postimg.com/image/8000/7456.jpg&quot; rel=&quot;nofollow&quot; target=&quot;_NEW&quot;&gt;\nhttp://www.postimg.com/image/8000/7456.jpg&lt;/a&gt;\n\nScreenCaps: &lt;a href=&quot;\nhttp://www.postimg.com/image/8000/7457.jpg&quot; rel=&quot;nofollow&quot; target=&quot;_NEW&quot;&gt;\nhttp://www.postimg.com/image/8000/7457.jpg&lt;/a&gt;","torrent":{"xt":"urn:btih:6544a8182cea7642d3e71c2c9a3f910d13357e38","amp;dn":"Fast+and+Furious+4+%282009%29+DVDRip-MAX","amp;tr":["udp%3A%2F%2Ftracker.openbittorrent.com%3A80","udp%3A%2F%2Fopen.demonii.com%3A1337","udp%3A%2F%2Ftracker.coppersurfer.tk%3A6969","udp%3A%2F%2Fexodus.desync.com%3A6969"],"infoHash":"6544a8182cea7642d3e71c2c9a3f910d13357e38","infoHashBuffer":{"type":"Buffer","data":[101,68,168,24,44,234,118,66,211,231,28,44,154,63,145,13,19,53,126,56]},"announce":[],"urlList":[]}}